#define escherknot_width 216
#define escherknot_height 208

static char escherknot_bits[] = {
 0x00, 0x00, 0x00, 0x00, 0x00, 0x00, 0x00, 0x00, 0x00, 0x00, 0x00, 0x00,
 0x00, 0x00, 0x00, 0x00, 0x00, 0x00, 0x00, 0x00, 0x00, 0x00, 0x00, 0x00,
 0x00, 0x00, 0x00, 0x00, 0x00, 0x00, 0x00, 0x00, 0x00, 0x00, 0x00, 0x00,
 0x00, 0x00, 0x00, 0x00, 0x00, 0x00, 0x00, 0x00, 0x00, 0x00, 0x00, 0x00,
 0x00, 0x00, 0x00, 0x00, 0x00, 0x00, 0x00, 0x00, 0x00, 0x00, 0x00, 0x00,
 0x00, 0x00, 0x00, 0x00, 0x00, 0x00, 0x00, 0x00, 0x00, 0x00, 0x00, 0x00,
 0x00, 0x00, 0x00, 0x00, 0x00, 0x00, 0x00, 0x00, 0x00, 0x00, 0x00, 0x00,
 0x00, 0x00, 0x00, 0x00, 0x00, 0x00, 0x00, 0x00, 0x00, 0x00, 0x00, 0x00,
 0x00, 0x00, 0x00, 0x00, 0x00, 0x00, 0x00, 0x00, 0x00, 0x00, 0x00, 0x00,
 0x00, 0x00, 0x00, 0x00, 0x00, 0x00, 0x00, 0x00, 0x00, 0x00, 0x00, 0x00,
 0x00, 0x00, 0x00, 0x00, 0x00, 0x00, 0x00, 0x00, 0x00, 0x00, 0x00, 0x00,
 0x00, 0x00, 0x00, 0x00, 0x00, 0x00, 0x00, 0x00, 0x00, 0x00, 0x00, 0x00,
 0x00, 0x00, 0x00, 0x00, 0x00, 0x00, 0x00, 0x00, 0x00, 0x00, 0xfa, 0x5f,
 0x00, 0x00, 0x00, 0x00, 0x00, 0x00, 0x00, 0x00, 0x00, 0x00, 0x00, 0x00,
 0x00, 0x00, 0x00, 0x00, 0x00, 0x00, 0x00, 0x00, 0x00, 0x00, 0x00, 0x00,
 0xf0, 0x6f, 0xf6, 0x1f, 0x00, 0x00, 0x00, 0x00, 0x00, 0x00, 0x00, 0x00,
 0x00, 0x00, 0x00, 0x00, 0x00, 0x00, 0x00, 0x00, 0x00, 0x00, 0x00, 0x00,
 0x00, 0x00, 0xc0, 0xff, 0x3a, 0x13, 0xff, 0x01, 0x00, 0x00, 0x00, 0x00,
 0x00, 0x00, 0x00, 0x00, 0x00, 0x00, 0x00, 0x00, 0x00, 0x00, 0x00, 0x00,
 0x00, 0x00, 0x00, 0x00, 0x00, 0xf8, 0x0d, 0x02, 0x51, 0x71, 0x0e, 0x00,
 0x00, 0x00, 0x00, 0x00, 0x00, 0x00, 0x00, 0x00, 0x00, 0x00, 0x00, 0x00,
 0x00, 0x00, 0x00, 0x00, 0x00, 0x00, 0x00, 0x80, 0x2f, 0x20, 0xd9, 0x88,
 0x9b, 0x7f, 0x00, 0x00, 0x00, 0x00, 0x00, 0x00, 0x00, 0x00, 0x00, 0x00,
 0x00, 0x00, 0x00, 0x00, 0x00, 0x00, 0x00, 0x00, 0x00, 0x00, 0xf0, 0x82,
 0xac, 0x44, 0x4e, 0x1c, 0xf3, 0x01, 0x00, 0x00, 0x00, 0x00, 0x00, 0x00,
 0x00, 0x00, 0x00, 0x00, 0x00, 0x00, 0x00, 0x00, 0x00, 0x00, 0x00, 0x00,
 0x00, 0x1e, 0x40, 0x02, 0x44, 0x60, 0xe2, 0xfc, 0x06, 0x00, 0x00, 0x00,
 0x00, 0x00, 0x00, 0x00, 0x00, 0x00, 0x00, 0x00, 0x00, 0x00, 0x00, 0x00,
 0x00, 0x00, 0x00, 0x80, 0x25, 0x09, 0x90, 0x22, 0x13, 0xb7, 0x9a, 0x1e,
 0x00, 0x00, 0x00, 0x00, 0x00, 0x00, 0x00, 0x00, 0x00, 0x00, 0x00, 0x00,
 0x00, 0x00, 0x00, 0x00, 0x00, 0x00, 0xf0, 0x00, 0x00, 0x40, 0x10, 0x89,
 0x18, 0xe3, 0x3b, 0x00, 0x00, 0x00, 0x00, 0x00, 0x00, 0x00, 0x00, 0x00,
 0x00, 0x00, 0x00, 0x00, 0x00, 0x00, 0x00, 0x00, 0x00, 0x1c, 0x04, 0x08,
 0x01, 0x10, 0xc8, 0xa8, 0xd5, 0xfe, 0x00, 0x00, 0x00, 0x00, 0x00, 0x00,
 0x00, 0x00, 0x00, 0x00, 0x00, 0x00, 0x00, 0x00, 0x00, 0x00, 0x00, 0x00,
 0x83, 0x80, 0x20, 0x40, 0x82, 0x00, 0x66, 0x9c, 0xec, 0x01, 0x00, 0x00,
 0x00, 0x00, 0x00, 0x00, 0x00, 0x00, 0x00, 0x00, 0x00, 0x00, 0x00, 0x00,
 0x00, 0x00, 0xc0, 0x00, 0x00, 0x00, 0x08, 0x08, 0x24, 0x12, 0x93, 0x5b,
 0x07, 0x00, 0x00, 0x00, 0x00, 0x00, 0x00, 0x00, 0x00, 0x00, 0x00, 0x00,
 0x00, 0x00, 0x00, 0x00, 0x00, 0x70, 0x12, 0x80, 0x04, 0x01, 0x00, 0x80,
 0x19, 0x33, 0xfa, 0x0f, 0x00, 0x00, 0x00, 0x00, 0x00, 0x00, 0x00, 0x00,
 0x00, 0x00, 0x00, 0x00, 0x00, 0x00, 0x00, 0x00, 0x0c, 0x80, 0x80, 0x00,
 0x20, 0x08, 0x12, 0xc4, 0x68, 0x26, 0x1c, 0x00, 0x00, 0x00, 0x00, 0x00,
 0x00, 0x00, 0x00, 0x00, 0x00, 0x00, 0x00, 0x00, 0x00, 0x00, 0x00, 0x03,
 0x02, 0x04, 0x24, 0x00, 0x01, 0x40, 0x24, 0x8c, 0xcd, 0x3f, 0x00, 0x00,
 0x00, 0x00, 0x00, 0x00, 0x00, 0x00, 0x00, 0x00, 0x00, 0x20, 0x00, 0x00,
 0x00, 0x80, 0x49, 0x10, 0x90, 0x00, 0x21, 0x20, 0x08, 0x11, 0x43, 0xd9,
 0x7e, 0x00, 0x00, 0x00, 0x00, 0x00, 0x00, 0x00, 0x00, 0x00, 0x00, 0xe8,
 0xff, 0xff, 0x0b, 0x00, 0x60, 0x00, 0x80, 0x00, 0x00, 0x00, 0x00, 0x00,
 0x80, 0x30, 0xb9, 0xf2, 0x01, 0x00, 0x00, 0x00, 0x00, 0x00, 0x00, 0x00,
 0x00, 0xc0, 0x97, 0x04, 0x08, 0xfe, 0x05, 0x30, 0x10, 0x12, 0x20, 0x20,
 0x04, 0x00, 0x80, 0x48, 0x0c, 0xa3, 0xff, 0x01, 0x00, 0x00, 0x00, 0x00,
 0x00, 0x00, 0x00, 0x00, 0x3e, 0x92, 0x20, 0x49, 0x40, 0x3e, 0x0e, 0x82,
 0x00, 0x84, 0x25, 0x01, 0x80, 0x00, 0x80, 0xc8, 0x34, 0xed, 0x03, 0x00,
 0x00, 0x00, 0x00, 0x00, 0x00, 0x00, 0xe0, 0x25, 0x01, 0x04, 0x01, 0x08,
 0xd0, 0x17, 0x00, 0x80, 0x25, 0x01, 0xad, 0x04, 0x12, 0x20, 0x23, 0x4c,
 0x6a, 0x07, 0x00, 0x00, 0x00, 0x00, 0x00, 0x00, 0x00, 0x5c, 0x02, 0x48,
 0x92, 0x20, 0x41, 0x92, 0x9e, 0x80, 0x24, 0x24, 0x29, 0x00, 0x04, 0x00,
 0x10, 0x98, 0xcc, 0xff, 0x07, 0x00, 0x00, 0x00, 0x00, 0x00, 0x00, 0x80,
 0x4f, 0x10, 0x01, 0x90, 0x24, 0x40, 0x12, 0xf0, 0x00, 0x24, 0x41, 0x0b,
 0xa9, 0x10, 0x00, 0x00, 0x04, 0xd9, 0x96, 0x0e, 0x00, 0x00, 0x00, 0x00,
 0x00, 0x00, 0xe0, 0x00, 0x92, 0x48, 0x02, 0x04, 0x09, 0xc0, 0x84, 0x8f,
 0x29, 0x2d, 0xf8, 0xa9, 0x02, 0x00, 0x00, 0x20, 0x90, 0xf4, 0x1e, 0x00,
 0x00, 0x00, 0x00, 0x00, 0x00, 0x98, 0x24, 0x91, 0x04, 0x50, 0x22, 0x24,
 0x1b, 0x12, 0x7a, 0x48, 0xca, 0x03, 0x21, 0x10, 0x00, 0x00, 0x48, 0x93,
 0xff, 0x3b, 0x00, 0x00, 0x00, 0x00, 0x00, 0x00, 0x9e, 0x24, 0x92, 0x20,
 0x81, 0xda, 0x24, 0xc8, 0x16, 0xd0, 0xe7, 0x50, 0xd2, 0xbf, 0x03, 0x00,
 0x80, 0x00, 0x30, 0x29, 0x3f, 0x00, 0x00, 0x00, 0x00, 0x00, 0x80, 0x03,
 0x20, 0x80, 0x24, 0x41, 0x12, 0x2a, 0x41, 0xb2, 0x80, 0x33, 0x0e, 0x7e,
 0x88, 0x1c, 0x01, 0x00, 0xa0, 0x24, 0x69, 0x75, 0x00, 0x00, 0x00, 0x00,
 0x00, 0xe0, 0x82, 0x44, 0x11, 0x24, 0x09, 0x90, 0xa4, 0x4d, 0xd2, 0x92,
 0x9e, 0xd3, 0x83, 0x6b, 0x62, 0x00, 0x00, 0x10, 0x22, 0xff, 0x7f, 0x00,
 0x00, 0x00, 0x00, 0x00, 0x30, 0x42, 0x04, 0x92, 0x24, 0x6b, 0x53, 0x32,
 0x59, 0x90, 0x16, 0xfa, 0xb4, 0xf4, 0xff, 0x0f, 0x01, 0x00, 0x90, 0x68,
 0x4a, 0xff, 0x00, 0x00, 0x00, 0x00, 0x00, 0x28, 0x90, 0x24, 0x11, 0x24,
 0x49, 0xda, 0x82, 0xc5, 0x92, 0xd2, 0xd0, 0x9e, 0x1e, 0x00, 0x78, 0x0a,
 0x00, 0x00, 0x05, 0xd2, 0xfa, 0x00, 0x00, 0x00, 0x00, 0x00, 0x4c, 0x02,
 0x44, 0xb2, 0x65, 0xea, 0x49, 0x9e, 0x2c, 0x4b, 0x1a, 0xd2, 0xeb, 0xe3,
 0xff, 0xc7, 0x09, 0x00, 0x20, 0x68, 0xff, 0xd6, 0x01, 0x00, 0x00, 0x00,
 0x00, 0x0b, 0x90, 0x40, 0x92, 0x24, 0x09, 0x5f, 0xd2, 0x64, 0x59, 0x72,
 0x56, 0x7f, 0xfd, 0xdf, 0x1f, 0x12, 0x00, 0x20, 0x49, 0x92, 0xde, 0x01,
 0x00, 0x00, 0x00, 0x80, 0x41, 0x92, 0x4c, 0x92, 0x24, 0x25, 0xc9, 0x8b,
 0x2e, 0xcb, 0x92, 0x4b, 0x5a, 0x2f, 0x75, 0xf4, 0x04, 0x00, 0x00, 0x41,
 0xf6, 0x74, 0x01, 0x00, 0x00, 0x00, 0x40, 0x49, 0x02, 0x00, 0xba, 0xb6,
 0xfd, 0x49, 0xf8, 0x74, 0x6d, 0x4b, 0x72, 0xed, 0xdb, 0xff, 0xcf, 0x53,
 0x00, 0x00, 0x48, 0xb6, 0xd7, 0x03, 0x00, 0x00, 0x00, 0x60, 0x48, 0x10,
 0xc9, 0x93, 0x24, 0x00, 0x7b, 0xc3, 0xa6, 0x69, 0x58, 0x5a, 0xfb, 0xfa,
 0xa5, 0xbe, 0x16, 0x00, 0x00, 0x92, 0xa4, 0xfd, 0x03, 0x00, 0x00, 0x00,
 0x30, 0x01, 0x20, 0x5d, 0xa2, 0xfe, 0x7f, 0x01, 0x4f, 0x1a, 0xcd, 0x6b,
 0x6a, 0xa9, 0x5f, 0xff, 0xf3, 0x24, 0x01, 0x40, 0xc0, 0xb4, 0xf4, 0x03,
 0x00, 0x00, 0x00, 0x2c, 0x88, 0x84, 0x89, 0xb6, 0x00, 0x24, 0x7d, 0x69,
 0xf2, 0x34, 0xad, 0x99, 0x2d, 0xf7, 0xff, 0x9f, 0x4b, 0x00, 0x00, 0x92,
 0xa6, 0xad, 0x07, 0x00, 0x00, 0x00, 0x06, 0x91, 0x24, 0xe9, 0xa4, 0xfd,
 0xa5, 0xa9, 0x4b, 0x93, 0xe7, 0x34, 0x63, 0xf9, 0xfc, 0xd5, 0xef, 0x16,
 0x00, 0x40, 0x90, 0xb4, 0xbd, 0x07, 0x00, 0x00, 0x00, 0x6a, 0x80, 0x4c,
 0x96, 0xbe, 0x2d, 0xfd, 0x2f, 0x7c, 0x5e, 0x9c, 0x67, 0xad, 0xa5, 0xfd,
 0xff, 0xbf, 0x29, 0x00, 0x00, 0x92, 0x76, 0xed, 0x06, 0x00, 0x00, 0x00,
 0x05, 0x12, 0x48, 0x53, 0x25, 0x65, 0x25, 0xf4, 0xe5, 0xd3, 0x72, 0x9c,
 0x35, 0xdf, 0xf6, 0x7f, 0xf5, 0x56, 0x00, 0x00, 0x92, 0xa4, 0xed, 0x0f,
 0x00, 0x00, 0x80, 0x49, 0x20, 0x59, 0x38, 0xec, 0xff, 0xff, 0xad, 0x2f,
 0x5d, 0xd3, 0x33, 0xe6, 0x24, 0xed, 0xff, 0xdf, 0x2d, 0x01, 0x40, 0x80,
 0x24, 0xbd, 0x07, 0x00, 0x00, 0xc0, 0x48, 0x24, 0x49, 0x87, 0x37, 0x21,
 0xa0, 0xbd, 0xf4, 0x79, 0x4f, 0xc7, 0x9c, 0xde, 0xf6, 0xff, 0xff, 0x5b,
 0x08, 0x00, 0x92, 0xfc, 0xe9, 0x0e, 0x00, 0x00, 0x20, 0x89, 0x40, 0xd3,
 0xf4, 0x49, 0xff, 0xff, 0xe7, 0x2f, 0xcf, 0x79, 0x9c, 0x53, 0xb2, 0x35,
 0xff, 0xff, 0x37, 0x00, 0x40, 0x90, 0x24, 0xef, 0x0e, 0x00, 0x00, 0x30,
 0x91, 0x49, 0x32, 0x2d, 0xff, 0x6b, 0xb7, 0xbd, 0xbc, 0x3c, 0xef, 0x79,
 0xce, 0xde, 0xd6, 0xfd, 0xff, 0x9f, 0x00, 0x00, 0x92, 0xa6, 0xad, 0x0b,
 0x00, 0x00, 0x30, 0x11, 0x89, 0x8c, 0xcb, 0x5b, 0xba, 0xaf, 0xf6, 0xd7,
 0xe7, 0x35, 0xe7, 0x59, 0xb3, 0xfb, 0xff, 0xff, 0x7f, 0x04, 0x40, 0x80,
 0xe4, 0xb9, 0x1f, 0x00, 0x00, 0x48, 0x22, 0x91, 0x66, 0x79, 0xeb, 0xff,
 0xff, 0xdf, 0xbe, 0xbe, 0xe7, 0x8c, 0x75, 0x6b, 0x4a, 0xfa, 0xbf, 0x7f,
 0x00, 0x00, 0x82, 0x24, 0xef, 0x0e, 0x00, 0x00, 0x4c, 0x22, 0xb2, 0x79,
 0x5e, 0xfa, 0x5b, 0xa9, 0xfd, 0xeb, 0xf5, 0x9c, 0x3d, 0xc6, 0xcc, 0xee,
 0xed, 0x01, 0xf8, 0x00, 0x40, 0x82, 0xb6, 0xa9, 0x1b, 0x00, 0x00, 0x94,
 0x64, 0x66, 0x8e, 0xd3, 0x97, 0xfe, 0xff, 0xd7, 0xdf, 0x9f, 0x7b, 0xf3,
 0x3c, 0x35, 0x59, 0x6b, 0x00, 0x70, 0x00, 0x00, 0x40, 0xe4, 0xed, 0x1e,
 0x00, 0x00, 0x92, 0xc4, 0x34, 0xf3, 0xfc, 0xfd, 0x5f, 0xad, 0x7d, 0xfa,
 0x7a, 0xce, 0x8e, 0xb3, 0x76, 0x2f, 0xfd, 0x00, 0xe0, 0x04, 0x00, 0x9a,
 0x26, 0xaf, 0x1e, 0x00, 0x00, 0x13, 0x88, 0xcc, 0xb5, 0x3f, 0xbf, 0xff,
 0xff, 0xd7, 0xef, 0xef, 0xbd, 0x79, 0x6a, 0xde, 0xec, 0xab, 0x01, 0xc0,
 0x00, 0x00, 0x40, 0xb6, 0xbd, 0x1b, 0x00, 0x00, 0x05, 0x91, 0xeb, 0x5c,
 0xeb, 0xeb, 0xff, 0xff, 0xff, 0x7e, 0xef, 0x6b, 0xef, 0xcd, 0x99, 0xb3,
 0xe4, 0x07, 0x80, 0x00, 0x40, 0x49, 0xb2, 0xe5, 0x1a, 0x00, 0x80, 0x20,
 0x32, 0xb1, 0xe7, 0x79, 0x7f, 0xf7, 0xff, 0xfd, 0xeb, 0xbd, 0xfe, 0x2c,
 0x3d, 0x6b, 0xb6, 0xaf, 0x06, 0x80, 0x00, 0x00, 0x41, 0x96, 0xfe, 0x1e,
 0x00, 0x80, 0x44, 0xb2, 0x9b, 0xf9, 0xde, 0xff, 0xff, 0xff, 0x7f, 0xbf,
 0xf7, 0xbb, 0xb3, 0x77, 0xce, 0xce, 0xb6, 0x0d, 0x80, 0x01, 0x00, 0x49,
 0xf2, 0x94, 0x1f, 0x00, 0x40, 0x49, 0x44, 0xe6, 0x9e, 0x77, 0xff, 0xff,
 0xff, 0xff, 0xff, 0xbf, 0xf7, 0x7e, 0xd6, 0xbc, 0xd9, 0xba, 0x3b, 0x80,
 0x00, 0x00, 0x64, 0x93, 0xf7, 0x1b, 0x00, 0x40, 0x89, 0xec, 0x7e, 0x67,
 0xbd, 0xff, 0xff, 0xff, 0xff, 0xff, 0xff, 0xce, 0xdb, 0x99, 0x33, 0x37,
 0xd3, 0x36, 0x80, 0x01, 0x80, 0x24, 0xda, 0xd6, 0x1e, 0x00, 0x20, 0x90,
 0x99, 0x99, 0x7b, 0xef, 0xfb, 0xff, 0xff, 0xff, 0xff, 0xef, 0xbd, 0x37,
 0x63, 0xf3, 0x66, 0xdb, 0x7a, 0x80, 0x00, 0x00, 0x24, 0x59, 0xde, 0x1f,
 0x00, 0x60, 0x12, 0xb3, 0xf7, 0xdd, 0xfb, 0xfe, 0xff, 0xff, 0xff, 0xff,
 0xbf, 0xf7, 0xfe, 0x6e, 0xce, 0xdd, 0x6d, 0xd7, 0x80, 0x00, 0x80, 0x20,
 0xcb, 0xfb, 0x1f, 0x00, 0x10, 0x20, 0x6e, 0x66, 0x76, 0xff, 0xff, 0xff,
 0xff, 0xff, 0xff, 0xef, 0xde, 0xdb, 0x9b, 0x99, 0xb3, 0x5d, 0x6b, 0x81,
 0x00, 0x40, 0x96, 0x59, 0x6a, 0x1f, 0x00, 0x98, 0xc4, 0xe4, 0xdf, 0xff,
 0xfb, 0xff, 0xff, 0xff, 0xff, 0xff, 0xff, 0x7b, 0x6f, 0x7b, 0x37, 0x7f,
 0xb3, 0xdd, 0x83, 0x00, 0x00, 0xb0, 0xed, 0xef, 0x1d, 0x00, 0x10, 0x88,
 0x9e, 0xdd, 0xcd, 0xbd, 0xff, 0xff, 0xff, 0xff, 0xff, 0xff, 0xf7, 0xed,
 0x6c, 0xe6, 0xcc, 0x76, 0x6d, 0xc1, 0x00, 0x40, 0x91, 0x24, 0x7b, 0x1f,
 0x00, 0x08, 0xd1, 0xf1, 0x66, 0x76, 0xff, 0xff, 0xff, 0xff, 0xff, 0xff,
 0xff, 0xdf, 0xbd, 0xbf, 0xd9, 0xdd, 0xdd, 0xb6, 0x47, 0x00, 0x00, 0xd8,
 0xb4, 0xad, 0x1f, 0x00, 0x24, 0x24, 0x6f, 0xf6, 0xff, 0xff, 0xff, 0xff,
 0xff, 0xff, 0xff, 0xff, 0x7f, 0x7f, 0xb7, 0x9d, 0x33, 0xd9, 0x96, 0x4e,
 0x00, 0x20, 0x49, 0xf7, 0xfd, 0x1e, 0x00, 0x48, 0xe4, 0xac, 0xb9, 0xdd,
 0xfe, 0xff, 0xff, 0xff, 0xff, 0xff, 0xff, 0xff, 0xef, 0xdd, 0x76, 0xb6,
 0xb7, 0xfd, 0x7a, 0x00, 0x00, 0x44, 0x96, 0xb7, 0x1f, 0x00, 0x02, 0x9a,
 0xbe, 0x6f, 0x77, 0xff, 0xff, 0x7f, 0x61, 0xd9, 0xff, 0xff, 0xff, 0xfd,
 0xdd, 0x66, 0xed, 0x66, 0x5b, 0x37, 0x00, 0x90, 0x64, 0xb9, 0xf6, 0x1f,
 0x00, 0x02, 0xc9, 0xf3, 0xee, 0xfd, 0xff, 0xff, 0x2f, 0x24, 0x4f, 0xfe,
 0xff, 0xff, 0x7f, 0x37, 0xdb, 0xcd, 0x7c, 0xff, 0x3a, 0x00, 0x88, 0x24,
 0xdb, 0xde, 0x1a, 0x00, 0x13, 0x31, 0x6f, 0xbb, 0xdf, 0xff, 0xff, 0x21,
 0xa0, 0x64, 0xf3, 0xff, 0xff, 0xe7, 0xff, 0x96, 0xbb, 0x9b, 0xa5, 0x1d,
 0x00, 0x60, 0x32, 0xe9, 0xdb, 0x0f, 0x00, 0x65, 0xe6, 0x3c, 0xfb, 0xf6,
 0xff, 0x7f, 0x10, 0xa4, 0xb5, 0x9d, 0xfe, 0xdf, 0xdf, 0xdd, 0x6d, 0x32,
 0xb3, 0x7d, 0x0d, 0x00, 0x0b, 0x93, 0x7c, 0x7b, 0x0f, 0x00, 0x89, 0xdc,
 0xb3, 0xed, 0xfb, 0xff, 0x1f, 0x10, 0x90, 0x92, 0xd9, 0xfe, 0x7f, 0xff,
 0x77, 0xdb, 0xee, 0x6e, 0xdb, 0x0e, 0x00, 0x20, 0xdd, 0x66, 0x6f, 0x0f,
 0x80, 0x91, 0x5a, 0xfb, 0xbe, 0xef, 0xff, 0x0f, 0x10, 0xda, 0x92, 0xee,
 0xff, 0xff, 0xff, 0xf7, 0xb7, 0xcd, 0xee, 0xde, 0x07, 0x00, 0x24, 0x49,
 0xb6, 0xed, 0x0f, 0x00, 0x12, 0x6b, 0xcd, 0xf3, 0xbe, 0xff, 0x07, 0x08,
 0x48, 0xda, 0x76, 0xb7, 0xff, 0xff, 0xdd, 0x6e, 0xba, 0x99, 0x65, 0x03,
 0x40, 0x92, 0xe4, 0xba, 0xbd, 0x0e, 0x80, 0x62, 0xed, 0x7d, 0x5f, 0xf7,
 0xff, 0x01, 0x08, 0x28, 0xc9, 0x26, 0xbb, 0xff, 0xff, 0xff, 0x99, 0xb7,
 0xbb, 0x7d, 0x03, 0x00, 0x89, 0x64, 0xdb, 0xf6, 0x07, 0x40, 0x0c, 0x35,
 0xe7, 0x79, 0xdd, 0xff, 0x01, 0x84, 0xa5, 0x7d, 0xba, 0xdd, 0xfe, 0x7f,
 0xbf, 0xbf, 0x6d, 0x76, 0xdb, 0x01, 0x00, 0x48, 0x36, 0xdb, 0xd6, 0x07,
 0xc0, 0x88, 0xb4, 0xb6, 0xbf, 0xff, 0x7f, 0x00, 0x0c, 0x24, 0x44, 0xdb,
 0xed, 0xff, 0xdf, 0xef, 0x6e, 0xdb, 0x6e, 0xb7, 0x00, 0x80, 0x44, 0x93,
 0xed, 0x5b, 0x07, 0x40, 0x91, 0xd2, 0xfa, 0xfc, 0xf6, 0x7f, 0x00, 0x02,
 0xb4, 0x35, 0xd9, 0xef, 0xff, 0xff, 0xfb, 0xef, 0xb6, 0xc9, 0xe4, 0x00,
 0x10, 0x24, 0xd9, 0x6d, 0xfb, 0x03, 0x00, 0x27, 0xfe, 0xd3, 0xd6, 0xdb,
 0x3f, 0x00, 0xa2, 0x94, 0xb4, 0xdb, 0x7c, 0xff, 0xff, 0xbf, 0xd9, 0xad,
 0xdb, 0x7d, 0x00, 0x40, 0x32, 0xd9, 0xb6, 0xef, 0x03, 0x60, 0xe4, 0x5a,
 0x5f, 0x5f, 0xff, 0x1f, 0x00, 0x02, 0x52, 0x92, 0xec, 0xb6, 0xff, 0xff,
 0xef, 0xff, 0x6d, 0xb6, 0x3b, 0x00, 0x28, 0x90, 0xcc, 0xbe, 0xfd, 0x03,
 0xa0, 0x88, 0xeb, 0xf9, 0xfd, 0xf5, 0x1f, 0x00, 0x82, 0x53, 0xbb, 0x6d,
 0xf7, 0xff, 0xf9, 0xff, 0x6f, 0xdb, 0x6d, 0x1b, 0x00, 0x04, 0xc9, 0x66,
 0xdb, 0x57, 0x03, 0xa0, 0x52, 0xaf, 0xa7, 0x97, 0xff, 0x0f, 0x00, 0x51,
 0x48, 0xda, 0x66, 0xdb, 0xff, 0xf8, 0xdf, 0xed, 0xbe, 0xed, 0x0e, 0x00,
 0x92, 0x64, 0x32, 0xeb, 0xf6, 0x01, 0x20, 0x63, 0xbd, 0xbc, 0xfc, 0xfa,
 0x0f, 0x00, 0x09, 0x20, 0x89, 0x3e, 0xff, 0xff, 0xe0, 0x7f, 0xdf, 0x6f,
 0xdb, 0x07, 0x00, 0x01, 0x24, 0xbb, 0xed, 0xfe, 0x01, 0xa0, 0xce, 0xf5,
 0xf6, 0xdb, 0xdf, 0x07, 0x00, 0x41, 0xad, 0x5f, 0xf2, 0xed, 0xff, 0xc0,
 0xff, 0xbf, 0xdd, 0x92, 0x03, 0x00, 0x44, 0xb2, 0xd9, 0x7d, 0xfb, 0x01,
 0xe0, 0xaa, 0xdf, 0x9b, 0x7f, 0xfb, 0x07, 0x80, 0x28, 0x21, 0x64, 0xbb,
 0x7f, 0x7f, 0x80, 0xff, 0xf6, 0xbb, 0xee, 0x03, 0x80, 0x22, 0x99, 0xed,
 0xb6, 0xff, 0x00, 0x90, 0xb8, 0x5e, 0x5b, 0x6b, 0xed, 0x03, 0x00, 0x01,
 0xa6, 0x6d, 0xdb, 0xf6, 0x7f, 0x00, 0xff, 0xff, 0xf6, 0xcd, 0x00, 0x40,
 0x10, 0xc9, 0x6c, 0xff, 0xf7, 0x00, 0xa0, 0xe3, 0x72, 0xeb, 0xef, 0xff,
 0x03, 0x80, 0xe0, 0x90, 0x24, 0xdb, 0xbd, 0x3f, 0x00, 0xfe, 0xdb, 0x6f,
 0xfb, 0x00, 0x00, 0x89, 0x4c, 0xb6, 0xd9, 0x7e, 0x00, 0x70, 0xaf, 0xaf,
 0x6f, 0xb5, 0xde, 0x03, 0x80, 0x94, 0x92, 0xb6, 0xf9, 0xf6, 0x3f, 0x00,
 0xfc, 0xbf, 0xdd, 0x7b, 0x00, 0x10, 0x48, 0x26, 0xb3, 0xdf, 0x7f, 0x00,
 0x70, 0xd8, 0xae, 0xfd, 0xff, 0xf7, 0x03, 0x80, 0x00, 0xd2, 0x36, 0xcf,
 0xdf, 0x3f, 0x00, 0xb8, 0x6d, 0xdf, 0x16, 0x00, 0x48, 0x44, 0xb2, 0xfb,
 0x6c, 0x3f, 0x00, 0x50, 0x75, 0xfd, 0xa5, 0xd5, 0xfe, 0x01, 0x40, 0xd1,
 0x12, 0xa2, 0x7d, 0xfb, 0x1f, 0x00, 0xf0, 0xff, 0xbf, 0x0d, 0x00, 0x20,
 0x12, 0x9b, 0xcd, 0xf6, 0x3f, 0x00, 0x90, 0xd5, 0xa7, 0xfd, 0x77, 0xab,
 0x03, 0x40, 0x1c, 0xc8, 0xbe, 0x6d, 0xfb, 0x1f, 0x00, 0xe0, 0xff, 0xee,
 0x07, 0x00, 0x04, 0x91, 0xc9, 0x7e, 0xbf, 0x1f, 0x00, 0x30, 0x57, 0xbf,
 0xa6, 0xde, 0xfd, 0x01, 0x40, 0x40, 0x6b, 0xd3, 0x6e, 0xef, 0x0f, 0x00,
 0xc0, 0xeb, 0x7d, 0x03, 0x00, 0x90, 0xc8, 0x6c, 0x76, 0xfb, 0x0f, 0x00,
 0x70, 0x5c, 0xe5, 0xf7, 0xfa, 0xeb, 0x01, 0x40, 0x50, 0x49, 0x92, 0xf4,
 0xfd, 0x0f, 0x00, 0xc0, 0xff, 0xdb, 0x01, 0x80, 0x44, 0x44, 0x66, 0xbb,
 0x6f, 0x0f, 0x00, 0xd0, 0xf1, 0x95, 0xf6, 0x6f, 0xad, 0x01, 0x40, 0x08,
 0x78, 0xdb, 0xb6, 0xef, 0x0f, 0x00, 0x00, 0xdf, 0xd6, 0x00, 0x00, 0x20,
 0x32, 0xb3, 0xdb, 0xfd, 0x0f, 0x00, 0x10, 0xd7, 0xf7, 0xb6, 0xd8, 0xeb,
 0x03, 0x20, 0x43, 0x27, 0xd9, 0xb6, 0xfd, 0x0f, 0x00, 0x00, 0xff, 0x7e,
 0x00, 0x40, 0x12, 0x93, 0xd9, 0xec, 0xb6, 0x07, 0x00, 0x70, 0x55, 0xdd,
 0xf6, 0x6f, 0xbb, 0x01, 0x40, 0x28, 0xa1, 0x6f, 0xb6, 0xb7, 0x0f, 0x00,
 0x00, 0xde, 0x1f, 0x00, 0x80, 0x88, 0xd8, 0xcc, 0x66, 0xff, 0x03, 0x00,
 0x70, 0xf4, 0xf5, 0xdb, 0xaa, 0xee, 0x01, 0x60, 0x28, 0x2d, 0x49, 0xf7,
 0xf6, 0x07, 0x00, 0x00, 0x7c, 0x0f, 0x00, 0x08, 0x48, 0x66, 0x6e, 0xfb,
 0xef, 0x03, 0x00, 0xd0, 0xd5, 0xdf, 0x52, 0xff, 0xda, 0x03, 0x20, 0xa3,
 0xa5, 0xd9, 0xb2, 0xff, 0x07, 0x00, 0x00, 0xf8, 0x07, 0x00, 0x20, 0x22,
 0x33, 0x37, 0xbf, 0xfd, 0x01, 0x00, 0x70, 0x5f, 0xf7, 0xfe, 0xab, 0x6b,
 0x02, 0xa0, 0xa8, 0xb4, 0x6d, 0xdf, 0xf6, 0x07, 0x00, 0x00, 0xf8, 0x01,
 0x00, 0x12, 0x33, 0x11, 0xd9, 0xdd, 0xff, 0x01, 0x00, 0x70, 0x75, 0xd5,
 0x52, 0xea, 0x8a, 0x03, 0x20, 0x84, 0x36, 0x69, 0xba, 0xdb, 0x07, 0x00,
 0x00, 0xf0, 0x01, 0x00, 0x81, 0xc8, 0xcc, 0xdd, 0xed, 0xff, 0x00, 0x00,
 0x60, 0xd5, 0xdf, 0xf6, 0xae, 0x6b, 0x03, 0x00, 0xa1, 0xa4, 0x6d, 0xdf,
 0xfe, 0x07, 0x00, 0x00, 0x60, 0x00, 0x40, 0x44, 0xc6, 0xcc, 0x64, 0xb7,
 0xfd, 0x00, 0x00, 0xe0, 0x55, 0xf7, 0xd6, 0xea, 0xba, 0x07, 0x20, 0x94,
 0x94, 0x6d, 0xfb, 0xdb, 0x07, 0x00, 0x00, 0x20, 0x00, 0x20, 0x20, 0x32,
 0x76, 0x77, 0xff, 0x7f, 0x00, 0x00, 0x60, 0x7d, 0xd5, 0xb6, 0x3f, 0xaf,
 0x06, 0xa0, 0xa4, 0x95, 0x6c, 0x9b, 0xee, 0x07, 0x00, 0x00, 0x18, 0x00,
 0x10, 0x92, 0x15, 0x73, 0xbb, 0xd9, 0x3f, 0x00, 0x00, 0xe0, 0xf5, 0xff,
 0xf7, 0x6a, 0xa9, 0x06, 0x80, 0xa2, 0xb4, 0x6d, 0xfb, 0xfb, 0x07, 0x00,
 0x00, 0x04, 0x00, 0x84, 0x88, 0xc8, 0x99, 0xdd, 0xff, 0x3f, 0x00, 0x00,
 0xe0, 0x8b, 0xff, 0x96, 0x6a, 0xb6, 0x0a, 0xa0, 0x94, 0x96, 0x64, 0xdb,
 0xee, 0x07, 0x00, 0x00, 0x03, 0x08, 0x20, 0x60, 0x66, 0xec, 0xee, 0xb6,
 0x1d, 0x00, 0x00, 0xc0, 0x7e, 0xa5, 0xf4, 0xab, 0x55, 0x0d, 0x20, 0xe7,
 0xd4, 0x6d, 0xdb, 0xfb, 0x07, 0x00, 0x80, 0x00, 0x00, 0x09, 0x12, 0x33,
 0x67, 0x77, 0xff, 0x0f, 0x00, 0x00, 0xc0, 0xfa, 0xff, 0xb7, 0x7a, 0x55,
 0x19, 0x90, 0x91, 0xd4, 0x64, 0xdb, 0xee, 0x07, 0x00, 0x40, 0x00, 0x81,
 0x04, 0x88, 0x91, 0x3b, 0xbb, 0xfd, 0x0f, 0x00, 0x00, 0xc0, 0xab, 0xbf,
 0xed, 0x4e, 0xbb, 0x32, 0x20, 0x94, 0x96, 0x6c, 0xff, 0xfa, 0x03, 0x00,
 0x30, 0x40, 0x20, 0x20, 0x64, 0xcc, 0xdc, 0xdd, 0xff, 0x07, 0x00, 0x00,
 0xc0, 0xeb, 0xea, 0xfd, 0xd5, 0xaa, 0x2a, 0x20, 0xd7, 0xb0, 0x6d, 0x93,
 0xef, 0x07, 0x00, 0x08, 0x00, 0x08, 0x01, 0x23, 0xee, 0xee, 0xee, 0xfb,
 0x03, 0x00, 0x00, 0xc0, 0xfe, 0xff, 0x2d, 0xdd, 0x6a, 0x49, 0xd0, 0x90,
 0x9a, 0x64, 0xdf, 0xea, 0x07, 0x00, 0x03, 0x80, 0x40, 0x8c, 0x98, 0x33,
 0xb3, 0xbb, 0xff, 0x01, 0x00, 0x00, 0xc0, 0xa5, 0x7b, 0x6d, 0xa7, 0x56,
 0xc5, 0xa0, 0x94, 0x94, 0x6f, 0xd3, 0xbb, 0x07, 0x80, 0x10, 0x0c, 0x12,
 0x40, 0xc6, 0xb9, 0xdb, 0xfb, 0xfd, 0x01, 0x00, 0x00, 0x80, 0x97, 0xee,
 0xdf, 0xba, 0x54, 0x1a, 0xa1, 0xe5, 0xd2, 0x64, 0x7e, 0xee, 0x07, 0x60,
 0x02, 0x80, 0x00, 0x31, 0x62, 0xcc, 0xdc, 0xee, 0x7f, 0x00, 0x00, 0x00,
 0x80, 0xff, 0xff, 0xdb, 0xaa, 0xb5, 0x8a, 0x86, 0x98, 0x96, 0x6d, 0x9b,
 0xea, 0x07, 0x98, 0x00, 0x22, 0x44, 0x88, 0x39, 0x77, 0x77, 0xff, 0x7f,
 0x00, 0x00, 0x00, 0x80, 0x7d, 0x77, 0xba, 0x7b, 0x2d, 0x55, 0x3c, 0xa6,
 0xb4, 0x6c, 0xf6, 0xaf, 0x07, 0x07, 0x90, 0x88, 0x20, 0x42, 0x9c, 0xbb,
 0xbb, 0xbb, 0x3f, 0x00, 0x00, 0x00, 0x00, 0x4b, 0xbd, 0xbf, 0x55, 0x53,
 0xa5, 0xb2, 0xa1, 0xb4, 0xc9, 0x9f, 0xda, 0xcf, 0x28, 0x24, 0x42, 0x08,
 0x31, 0xe6, 0xcc, 0xdd, 0xff, 0x7f, 0x00, 0x00, 0x00, 0x00, 0xff, 0xef,
 0xb7, 0xbd, 0xde, 0x12, 0xd1, 0xac, 0x95, 0x4d, 0xf2, 0x56, 0x9f, 0x88,
 0x80, 0x10, 0xc2, 0x9c, 0x73, 0x77, 0xef, 0xfe, 0x7f, 0x00, 0x00, 0x00,
 0x00, 0xbf, 0xfb, 0xed, 0xeb, 0x35, 0x95, 0x72, 0xa2, 0x35, 0xcd, 0xb6,
 0xd6, 0x2f, 0x21, 0x24, 0x04, 0x31, 0xc6, 0x98, 0x33, 0xf7, 0xff, 0xff,
 0x00, 0x00, 0x00, 0x00, 0xd6, 0x6a, 0x7f, 0x5b, 0xab, 0x2d, 0x28, 0x23,
 0x65, 0xd9, 0xb6, 0x55, 0x5f, 0x88, 0x08, 0x43, 0x0c, 0x61, 0xde, 0xdd,
 0xfb, 0xff, 0xff, 0x00, 0x00, 0x00, 0x00, 0x76, 0xff, 0x4d, 0xd7, 0x4d,
 0x4a, 0xa5, 0x29, 0x2d, 0xdb, 0xbe, 0x55, 0x1f, 0x22, 0x42, 0x28, 0xc2,
 0x39, 0xe7, 0xee, 0xee, 0xff, 0xff, 0x00, 0x00, 0x00, 0x00, 0xdc, 0x7f,
 0xfb, 0xb6, 0xb6, 0x95, 0x70, 0x2e, 0xa5, 0xd9, 0x24, 0x5d, 0x5f, 0x8a,
 0x28, 0x88, 0x31, 0x9e, 0x39, 0x73, 0xff, 0xff, 0xff, 0x00, 0x00, 0x00,
 0x00, 0xec, 0xb7, 0xdf, 0x6c, 0xb5, 0x65, 0x26, 0xa3, 0x39, 0x9b, 0xfc,
 0x85, 0x5d, 0x21, 0x04, 0x63, 0x1c, 0xe6, 0xdd, 0xbd, 0xfb, 0xff, 0xff,
 0x01, 0x00, 0x00, 0x00, 0xb8, 0xfa, 0xb6, 0x6f, 0x4d, 0x9a, 0x28, 0x59,
 0x4d, 0xd3, 0x2f, 0xf5, 0x3f, 0x8c, 0xd1, 0x18, 0xc6, 0x31, 0xf6, 0xdd,
 0xfe, 0xff, 0xfe, 0x01, 0x00, 0x00, 0x00, 0xf8, 0xff, 0xef, 0xb9, 0xb6,
 0x25, 0xe1, 0x4d, 0x69, 0xba, 0x6c, 0xad, 0x3c, 0x41, 0x14, 0x84, 0xe9,
 0x9e, 0x37, 0xf7, 0xff, 0xff, 0xfb, 0x03, 0x00, 0x00, 0x00, 0x70, 0x5d,
 0x3d, 0x9f, 0x3d, 0x6d, 0x26, 0x52, 0x59, 0xb6, 0x6d, 0xab, 0x7f, 0x14,
 0x82, 0xe1, 0x39, 0xe6, 0xdd, 0xfb, 0xff, 0xbf, 0xff, 0x01, 0x00, 0x00,
 0x00, 0xf0, 0xf6, 0x6f, 0x77, 0xcd, 0x92, 0xd0, 0x52, 0x4b, 0xb3, 0x49,
 0x0b, 0x3a, 0x41, 0x61, 0x38, 0x9e, 0x73, 0xee, 0xdc, 0xff, 0xff, 0xfd,
 0x03, 0x00, 0x00, 0x00, 0xf0, 0xff, 0xd7, 0x65, 0xda, 0x66, 0x63, 0x9d,
 0xf2, 0x36, 0x7b, 0x6a, 0x7f, 0x14, 0x18, 0x8e, 0xe7, 0xd9, 0x7b, 0xff,
 0xff, 0xef, 0xff, 0x03, 0x00, 0x00, 0x00, 0xe0, 0xff, 0xff, 0xdd, 0xb6,
 0xc9, 0x4c, 0x46, 0x9a, 0x64, 0xcb, 0x5b, 0xed, 0x06, 0xc6, 0xe3, 0x71,
 0xde, 0xbd, 0xff, 0xff, 0x7f, 0xff, 0x07, 0x00, 0x00, 0x00, 0xc0, 0x7f,
 0x7f, 0xff, 0x59, 0x37, 0x75, 0xbb, 0x96, 0x66, 0xdb, 0x56, 0xf7, 0xe0,
 0xf2, 0x74, 0x9e, 0x77, 0xef, 0xfd, 0xff, 0xeb, 0xed, 0x03, 0x00, 0x00,
 0x00, 0xc0, 0xea, 0xdf, 0xb3, 0xdb, 0xde, 0xc6, 0x81, 0xb0, 0x6c, 0xba,
 0xb4, 0xf6, 0x38, 0x18, 0x3c, 0xe7, 0x9c, 0xfb, 0xff, 0x7f, 0xff, 0xff,
 0x07, 0x00, 0x00, 0x00, 0x80, 0xff, 0xf7, 0x6e, 0x66, 0xd9, 0x99, 0xac,
 0xa4, 0xcd, 0x96, 0xa5, 0xea, 0x03, 0xa7, 0xcf, 0x79, 0xef, 0xfd, 0xff,
 0xff, 0xff, 0xff, 0x07, 0x00, 0x00, 0x00, 0x00, 0xff, 0xfd, 0xef, 0xdf,
 0x6f, 0xef, 0x72, 0x65, 0xd9, 0xb6, 0xad, 0xe8, 0xc1, 0xe1, 0xf1, 0xbe,
 0x7b, 0xef, 0xff, 0xdf, 0x7a, 0xfb, 0x07, 0x00, 0x00, 0x00, 0x00, 0xfe,
 0x5f, 0xdd, 0x9d, 0xac, 0x99, 0x84, 0x29, 0xcd, 0x3c, 0x4f, 0x9d, 0x7d,
 0x3c, 0x9e, 0xe7, 0xbe, 0xff, 0xff, 0xff, 0xff, 0xef, 0x0f, 0x00, 0x00,
 0x00, 0x00, 0xfe, 0xff, 0x77, 0x7b, 0x33, 0xe7, 0x5a, 0x49, 0x9b, 0x65,
 0x59, 0x75, 0x07, 0x97, 0xf7, 0xbb, 0xef, 0xff, 0xff, 0xdb, 0xfe, 0xff,
 0x07, 0x00, 0x00, 0x00, 0x00, 0xfc, 0xf7, 0x3f, 0xe7, 0xcf, 0x9c, 0x51,
 0x4d, 0xb0, 0x6d, 0x4b, 0xc9, 0xd3, 0xf5, 0x79, 0xfe, 0xfb, 0xff, 0xff,
 0xdb, 0xda, 0xfe, 0x0f, 0x00, 0x00, 0x00, 0x00, 0xf8, 0xff, 0xef, 0xde,
 0xdd, 0xf3, 0x4d, 0x52, 0x36, 0xcb, 0xd2, 0x3a, 0x7e, 0x3c, 0xde, 0xe7,
 0xbe, 0xff, 0x7f, 0xda, 0xff, 0xdf, 0x0f, 0x00, 0x00, 0x00, 0x00, 0xf8,
 0xff, 0xfb, 0xdd, 0x73, 0x8f, 0xa5, 0x9a, 0xe6, 0xd9, 0xb6, 0xe2, 0x4e,
 0xc7, 0xf7, 0xfd, 0xff, 0xff, 0xff, 0xf7, 0xf6, 0xff, 0x0f, 0x00, 0x00,
 0x00, 0x00, 0xe0, 0xff, 0xff, 0x7f, 0xee, 0x79, 0xb2, 0xb2, 0x2c, 0x9f,
 0xb6, 0x54, 0xfe, 0xfb, 0x79, 0xbf, 0xff, 0xff, 0x5f, 0xda, 0xff, 0xfa,
 0x0f, 0x00, 0x00, 0x00, 0x00, 0xe0, 0xff, 0xff, 0xf7, 0xbf, 0xe7, 0x4b,
 0xb4, 0x69, 0xd3, 0x2c, 0x25, 0xbd, 0xbc, 0xcf, 0xf7, 0xfd, 0xff, 0xd7,
 0xf6, 0xfe, 0xdf, 0x0f, 0x00, 0x00, 0x00, 0x00, 0x80, 0xff, 0xbf, 0x9d,
 0xf1, 0x3e, 0x57, 0x25, 0xcb, 0xb6, 0x6d, 0xa9, 0xb5, 0xef, 0xfb, 0xff,
 0xff, 0xff, 0xd5, 0xda, 0xd6, 0xff, 0x1f, 0x00, 0x00, 0x00, 0x00, 0x80,
 0xff, 0xff, 0xfb, 0xcf, 0xf5, 0x25, 0x65, 0xd9, 0x66, 0x5b, 0x4a, 0xfa,
 0xf9, 0x7e, 0xff, 0xff, 0xff, 0xf6, 0xd6, 0xdf, 0xfa, 0x0f, 0x00, 0x00,
 0x00, 0x00, 0x00, 0xfe, 0xff, 0xef, 0x3e, 0xf7, 0x9f, 0x5b, 0x92, 0x6c,
 0xdb, 0x52, 0xe5, 0xbe, 0xdf, 0xff, 0xff, 0xbf, 0x51, 0xda, 0xfa, 0x7f,
 0x1f, 0x00, 0x00, 0x00, 0x00, 0x00, 0xfe, 0xff, 0xff, 0x7b, 0x9f, 0xe7,
 0x4c, 0xb3, 0x4d, 0xd3, 0x54, 0xd9, 0xe7, 0xfb, 0xff, 0xff, 0x5f, 0xdc,
 0xfa, 0xdf, 0xff, 0x1f, 0x00, 0x00, 0x00, 0x00, 0x00, 0xf8, 0xff, 0x7f,
 0xe7, 0xf9, 0x3a, 0xd3, 0xa6, 0xe9, 0xb6, 0xa5, 0xca, 0xf9, 0xfd, 0xff,
 0xff, 0x83, 0x42, 0xd2, 0xff, 0xfb, 0x0f, 0x00, 0x00, 0x00, 0x00, 0x00,
 0xf0, 0xff, 0xfd, 0xbf, 0xef, 0x4f, 0xd5, 0x64, 0xdb, 0x26, 0x4d, 0x30,
 0x7f, 0xff, 0xff, 0xff, 0x91, 0xda, 0xdb, 0xda, 0xdf, 0x1f, 0x00, 0x00,
 0x00, 0x00, 0x00, 0xe0, 0xff, 0xbf, 0xff, 0x7d, 0xbe, 0xb5, 0x6d, 0x97,
 0x6d, 0x93, 0x56, 0xdf, 0xff, 0xff, 0x7f, 0x81, 0x4a, 0xda, 0x7f, 0xff,
 0x0f, 0x00, 0x00, 0x00, 0x00, 0x00, 0xc0, 0xff, 0xff, 0xef, 0xeb, 0xbb,
 0xa6, 0x4d, 0x73, 0xcd, 0x92, 0xaa, 0xfe, 0xff, 0xff, 0x1f, 0x01, 0x6a,
 0x5b, 0xfb, 0xfb, 0x1f, 0x00, 0x00, 0x00, 0x00, 0x00, 0x00, 0xff, 0xff,
 0xfd, 0xbf, 0x5f, 0x3b, 0xdb, 0x36, 0xbb, 0x26, 0x4c, 0xf9, 0xff, 0xff,
 0x0f, 0xa3, 0x2a, 0xe9, 0x7f, 0xff, 0x0f, 0x00, 0x00, 0x00, 0x00, 0x00,
 0x00, 0xee, 0xff, 0xff, 0xfe, 0xfe, 0xcc, 0x91, 0xec, 0x93, 0x6d, 0x93,
 0xf2, 0xff, 0xff, 0x03, 0x00, 0x6a, 0x6d, 0x6f, 0xff, 0x1f, 0x00, 0x00,
 0x00, 0x00, 0x00, 0x00, 0xf8, 0xff, 0xff, 0xf7, 0x6f, 0x76, 0xb6, 0xcd,
 0x76, 0xc9, 0x2a, 0xe9, 0xff, 0xff, 0x00, 0x02, 0x24, 0xed, 0xf9, 0xed,
 0x0f, 0x00, 0x00, 0x00, 0x00, 0x00, 0x00, 0xf0, 0xff, 0xff, 0xdf, 0xff,
 0xd9, 0x66, 0x9b, 0x6c, 0x93, 0x54, 0xc5, 0xff, 0x3f, 0x00, 0x01, 0x95,
 0xb5, 0xaf, 0xff, 0x1f, 0x00, 0x00, 0x00, 0x00, 0x00, 0x00, 0xc0, 0xff,
 0xff, 0xff, 0xfd, 0xae, 0x7d, 0xde, 0x6d, 0xf6, 0xa1, 0x8a, 0xff, 0x0f,
 0x00, 0x81, 0x90, 0xb4, 0xfd, 0xfd, 0x0f, 0x00, 0x00, 0x00, 0x00, 0x00,
 0x00, 0x80, 0xff, 0xff, 0xff, 0xff, 0xf7, 0xcd, 0xb2, 0xdb, 0x2c, 0xcb,
 0x54, 0xfe, 0x01, 0x00, 0x01, 0xd2, 0xb6, 0xb7, 0xff, 0x0f, 0x00, 0x00,
 0x00, 0x00, 0x00, 0x00, 0x00, 0xfe, 0xff, 0xff, 0xff, 0x39, 0xdb, 0x76,
 0xb3, 0x4b, 0xb6, 0x0a, 0xfe, 0x00, 0x00, 0x01, 0x48, 0xda, 0xfe, 0xff,
 0x0f, 0x00, 0x00, 0x00, 0x00, 0x00, 0x00, 0x00, 0xf8, 0xff, 0xff, 0xff,
 0xcf, 0xb9, 0x6d, 0xb6, 0xd9, 0xa5, 0x75, 0x1c, 0x00, 0x80, 0x80, 0x20,
 0xdb, 0xda, 0xbe, 0x1f, 0x00, 0x00, 0x00, 0x00, 0x00, 0x00, 0x00, 0xe0,
 0xff, 0xff, 0xff, 0x77, 0x96, 0xd9, 0x26, 0xb3, 0x4d, 0x82, 0x11, 0x00,
 0x80, 0x80, 0x24, 0x6d, 0xff, 0xf7, 0x0f, 0x00, 0x00, 0x00, 0x00, 0x00,
 0x00, 0x00, 0x80, 0xff, 0xff, 0xff, 0xbb, 0x67, 0xdb, 0xdd, 0x36, 0xd9,
 0x54, 0x60, 0x00, 0xc0, 0x00, 0x92, 0x65, 0x6b, 0xff, 0x0f, 0x00, 0x00,
 0x00, 0x00, 0x00, 0x00, 0x00, 0x00, 0xfe, 0xff, 0xff, 0x4f, 0x7d, 0x96,
 0xd9, 0x6c, 0x36, 0xad, 0xc2, 0x00, 0x60, 0x00, 0xc8, 0xb6, 0x6d, 0xff,
 0x0f, 0x00, 0x00, 0x00, 0x00, 0x00, 0x00, 0x00, 0x00, 0xf0, 0xff, 0xff,
 0xff, 0xc8, 0x76, 0xbb, 0xcb, 0x64, 0x52, 0x02, 0x03, 0x10, 0x00, 0x64,
 0xda, 0xff, 0xfb, 0x0f, 0x00, 0x00, 0x00, 0x00, 0x00, 0x00, 0x00, 0x00,
 0x80, 0xff, 0xff, 0x5f, 0xd7, 0x4d, 0x33, 0x99, 0xdd, 0x96, 0x04, 0x2c,
 0x1c, 0x40, 0x22, 0xdb, 0xb6, 0xff, 0x07, 0x00, 0x00, 0x00, 0x00, 0x00,
 0x00, 0x00, 0x00, 0x00, 0xfc, 0xff, 0xdf, 0xb5, 0xed, 0xe6, 0x36, 0x9b,
 0x6c, 0x29, 0xf0, 0x03, 0x00, 0x99, 0x6c, 0xfb, 0xfd, 0x07, 0x00, 0x00,
 0x00, 0x00, 0x00, 0x00, 0x00, 0x00, 0x00, 0xc0, 0xff, 0x7f, 0x35, 0xbb,
 0xec, 0x76, 0x33, 0x91, 0x02, 0x00, 0x00, 0x00, 0x64, 0x67, 0xdf, 0xff,
 0x0f, 0x00, 0x00, 0x00, 0x00, 0x00, 0x00, 0x00, 0x00, 0x00, 0x00, 0xfc,
 0xbf, 0x6f, 0x9b, 0x9d, 0xc9, 0xce, 0x36, 0x49, 0x00, 0x00, 0x00, 0x93,
 0xb1, 0xdd, 0xfe, 0x07, 0x00, 0x00, 0x00, 0x00, 0x00, 0x00, 0x00, 0x00,
 0x00, 0x00, 0x40, 0xff, 0x6a, 0x76, 0xbb, 0xdd, 0xd9, 0x64, 0x12, 0x01,
 0x00, 0x40, 0x98, 0xdd, 0x6d, 0xff, 0x07, 0x00, 0x00, 0x00, 0x00, 0x00,
 0x00, 0x00, 0x00, 0x00, 0x00, 0x00, 0xc0, 0xdf, 0x66, 0x73, 0x33, 0xbb,
 0x9d, 0x4d, 0x00, 0x00, 0x00, 0x63, 0xe6, 0xf6, 0xff, 0x07, 0x00, 0x00,
 0x00, 0x00, 0x00, 0x00, 0x00, 0x00, 0x00, 0x00, 0x00, 0x80, 0xed, 0xfd,
 0xee, 0xee, 0x36, 0x73, 0x2b, 0x04, 0x00, 0xa0, 0x38, 0x75, 0xbf, 0xff,
 0x03, 0x00, 0x00, 0x00, 0x00, 0x00, 0x00, 0x00, 0x00, 0x00, 0x00, 0x00,
 0x00, 0x7f, 0xd9, 0xec, 0xce, 0x66, 0x66, 0x66, 0x22, 0x04, 0x00, 0xc6,
 0x99, 0xbb, 0xff, 0x03, 0x00, 0x00, 0x00, 0x00, 0x00, 0x00, 0x00, 0x00,
 0x00, 0x00, 0x00, 0x00, 0x5e, 0xb3, 0xdb, 0xb9, 0xcd, 0xc9, 0x88, 0x89,
 0x00, 0x68, 0x31, 0xee, 0xdd, 0xff, 0x03, 0x00, 0x00, 0x00, 0x00, 0x00,
 0x00, 0x00, 0x00, 0x00, 0x00, 0x00, 0x00, 0xf6, 0xbe, 0xbb, 0x9b, 0x3f,
 0xbb, 0x33, 0x23, 0x04, 0x00, 0x8c, 0xf3, 0xee, 0xff, 0x03, 0x00, 0x00,
 0x00, 0x00, 0x00, 0x00, 0x00, 0x00, 0x00, 0x00, 0x00, 0x00, 0xbc, 0x67,
 0x76, 0x77, 0xb2, 0x66, 0xce, 0x0c, 0xd1, 0xd6, 0xe3, 0x79, 0xf7, 0xff,
 0x03, 0x00, 0x00, 0x00, 0x00, 0x00, 0x00, 0x00, 0x00, 0x00, 0x00, 0x00,
 0x00, 0xf8, 0xfd, 0xef, 0xe6, 0xee, 0xce, 0x9c, 0x31, 0x16, 0x00, 0x3c,
 0x9e, 0xfb, 0xff, 0x01, 0x00, 0x00, 0x00, 0x00, 0x00, 0x00, 0x00, 0x00,
 0x00, 0x00, 0x00, 0x00, 0x78, 0x9f, 0xdb, 0xdc, 0x9d, 0x99, 0x33, 0xc6,
 0xc1, 0xff, 0x8f, 0xe7, 0xbb, 0xff, 0x01, 0x00, 0x00, 0x00, 0x00, 0x00,
 0x00, 0x00, 0x00, 0x00, 0x00, 0x00, 0x00, 0xf0, 0xf7, 0xbd, 0xbb, 0x33,
 0x7b, 0xee, 0x18, 0x1e, 0x50, 0xf0, 0xf9, 0xfe, 0xff, 0x00, 0x00, 0x00,
 0x00, 0x00, 0x00, 0x00, 0x00, 0x00, 0x00, 0x00, 0x00, 0x00, 0xe0, 0x7b,
 0xf7, 0x77, 0xf7, 0xe6, 0x9c, 0xe3, 0xf0, 0x4d, 0xff, 0x7c, 0xef, 0xff,
 0x00, 0x00, 0x00, 0x00, 0x00, 0x00, 0x00, 0x00, 0x00, 0x00, 0x00, 0x00,
 0x00, 0xc0, 0xdf, 0x76, 0x7f, 0xcf, 0x9e, 0x73, 0x8f, 0x07, 0xff, 0x0b,
 0xdf, 0xff, 0xff, 0x00, 0x00, 0x00, 0x00, 0x00, 0x00, 0x00, 0x00, 0x00,
 0x00, 0x00, 0x00, 0x00, 0x80, 0xee, 0xcd, 0xdd, 0x9d, 0x7b, 0xf7, 0x7c,
 0x7a, 0x00, 0xf0, 0xe7, 0xfd, 0x7f, 0x00, 0x00, 0x00, 0x00, 0x00, 0x00,
 0x00, 0x00, 0x00, 0x00, 0x00, 0x00, 0x00, 0x80, 0x7f, 0xbf, 0xdd, 0x7b,
 0x6b, 0x9e, 0xf3, 0xe1, 0xff, 0xff, 0x7d, 0xff, 0x7f, 0x00, 0x00, 0x00,
 0x00, 0x00, 0x00, 0x00, 0x00, 0x00, 0x00, 0x00, 0x00, 0x00, 0x00, 0xee,
 0xb7, 0xbb, 0x7b, 0xee, 0x79, 0x8f, 0x0f, 0xfa, 0x2f, 0xff, 0xf7, 0x3f,
 0x00, 0x00, 0x00, 0x00, 0x00, 0x00, 0x00, 0x00, 0x00, 0x00, 0x00, 0x00,
 0x00, 0x00, 0x7e, 0xff, 0x77, 0xef, 0xdd, 0x77, 0x7c, 0xfe, 0x02, 0xe8,
 0xcf, 0xff, 0x3f, 0x00, 0x00, 0x00, 0x00, 0x00, 0x00, 0x00, 0x00, 0x00,
 0x00, 0x00, 0x00, 0x00, 0x00, 0xf8, 0xef, 0xee, 0xdd, 0xb3, 0xcf, 0xf3,
 0xf1, 0xff, 0xff, 0xf9, 0xfe, 0x1f, 0x00, 0x00, 0x00, 0x00, 0x00, 0x00,
 0x00, 0x00, 0x00, 0x00, 0x00, 0x00, 0x00, 0x00, 0xf8, 0xfb, 0xff, 0xbf,
 0xef, 0xbe, 0xcf, 0x8f, 0xfe, 0x5f, 0xfe, 0xff, 0x0f, 0x00, 0x00, 0x00,
 0x00, 0x00, 0x00, 0x00, 0x00, 0x00, 0x00, 0x00, 0x00, 0x00, 0x00, 0xe0,
 0xbf, 0xbb, 0xf7, 0xde, 0x79, 0x3e, 0xff, 0x52, 0xd2, 0xdf, 0xff, 0x0f,
 0x00, 0x00, 0x00, 0x00, 0x00, 0x00, 0x00, 0x00, 0x00, 0x00, 0x00, 0x00,
 0x00, 0x00, 0xe0, 0xef, 0xef, 0xef, 0x3c, 0xef, 0xf9, 0xf8, 0xff, 0xff,
 0xf7, 0xff, 0x07, 0x00, 0x00, 0x00, 0x00, 0x00, 0x00, 0x00, 0x00, 0x00,
 0x00, 0x00, 0x00, 0x00, 0x00, 0x80, 0xff, 0xee, 0xdc, 0xf7, 0xfe, 0xe7,
 0x97, 0xfe, 0xff, 0xfe, 0xff, 0x07, 0x00, 0x00, 0x00, 0x00, 0x00, 0x00,
 0x00, 0x00, 0x00, 0x00, 0x00, 0x00, 0x00, 0x00, 0x00, 0xff, 0xff, 0xbf,
 0xef, 0xbf, 0x3e, 0xff, 0xda, 0xf6, 0xff, 0xff, 0x03, 0x00, 0x00, 0x00,
 0x00, 0x00, 0x00, 0x00, 0x00, 0x00, 0x00, 0x00, 0x00, 0x00, 0x00, 0x00,
 0xfe, 0xbf, 0xf7, 0xfe, 0xf7, 0xff, 0xfe, 0xff, 0xff, 0xff, 0xff, 0x01,
 0x00, 0x00, 0x00, 0x00, 0x00, 0x00, 0x00, 0x00, 0x00, 0x00, 0x00, 0x00,
 0x00, 0x00, 0x00, 0xfe, 0xff, 0xde, 0xbd, 0xef, 0xfb, 0xd7, 0xff, 0xbf,
 0xfd, 0xff, 0x00, 0x00, 0x00, 0x00, 0x00, 0x00, 0x00, 0x00, 0x00, 0x00,
 0x00, 0x00, 0x00, 0x00, 0x00, 0x00, 0xf8, 0xff, 0xff, 0xf7, 0x7d, 0xbf,
 0xff, 0xd2, 0xf6, 0xff, 0xff, 0x00, 0x00, 0x00, 0x00, 0x00, 0x00, 0x00,
 0x00, 0x00, 0x00, 0x00, 0x00, 0x00, 0x00, 0x00, 0x00, 0xe0, 0xff, 0xbf,
 0xef, 0xfb, 0xfd, 0xfd, 0xff, 0xff, 0xff, 0x7f, 0x00, 0x00, 0x00, 0x00,
 0x00, 0x00, 0x00, 0x00, 0x00, 0x00, 0x00, 0x00, 0x00, 0x00, 0x00, 0x00,
 0xc0, 0xff, 0xef, 0xbe, 0xf7, 0xef, 0xef, 0xff, 0xff, 0xff, 0x3f, 0x00,
 0x00, 0x00, 0x00, 0x00, 0x00, 0x00, 0x00, 0x00, 0x00, 0x00, 0x00, 0x00,
 0x00, 0x00, 0x00, 0x00, 0xff, 0xff, 0xfb, 0xdf, 0xbf, 0xff, 0xff, 0xff,
 0xff, 0x1f, 0x00, 0x00, 0x00, 0x00, 0x00, 0x00, 0x00, 0x00, 0x00, 0x00,
 0x00, 0x00, 0x00, 0x00, 0x00, 0x00, 0x00, 0xfe, 0xff, 0xff, 0x7f, 0xff,
 0xff, 0xff, 0xff, 0xff, 0x0f, 0x00, 0x00, 0x00, 0x00, 0x00, 0x00, 0x00,
 0x00, 0x00, 0x00, 0x00, 0x00, 0x00, 0x00, 0x00, 0x00, 0x00, 0xfc, 0xff,
 0xfe, 0xff, 0xfb, 0xf7, 0xff, 0xff, 0xff, 0x07, 0x00, 0x00, 0x00, 0x00,
 0x00, 0x00, 0x00, 0x00, 0x00, 0x00, 0x00, 0x00, 0x00, 0x00, 0x00, 0x00,
 0x00, 0xf0, 0xff, 0xff, 0xff, 0xdf, 0xff, 0xfd, 0xff, 0xff, 0x03, 0x00,
 0x00, 0x00, 0x00, 0x00, 0x00, 0x00, 0x00, 0x00, 0x00, 0x00, 0x00, 0x00,
 0x00, 0x00, 0x00, 0x00, 0xc0, 0xff, 0xff, 0xff, 0xff, 0xff, 0xff, 0xff,
 0xff, 0x01, 0x00, 0x00, 0x00, 0x00, 0x00, 0x00, 0x00, 0x00, 0x00, 0x00,
 0x00, 0x00, 0x00, 0x00, 0x00, 0x00, 0x00, 0x80, 0xff, 0xff, 0xff, 0xff,
 0xff, 0xff, 0xff, 0x7f, 0x00, 0x00, 0x00, 0x00, 0x00, 0x00, 0x00, 0x00,
 0x00, 0x00, 0x00, 0x00, 0x00, 0x00, 0x00, 0x00, 0x00, 0x00, 0x00, 0xfe,
 0xff, 0xff, 0xff, 0xff, 0xff, 0xff, 0x3f, 0x00, 0x00, 0x00, 0x00, 0x00,
 0x00, 0x00, 0x00, 0x00, 0x00, 0x00, 0x00, 0x00, 0x00, 0x00, 0x00, 0x00,
 0x00, 0x00, 0xf8, 0xff, 0xff, 0xff, 0xff, 0xff, 0xff, 0x1f, 0x00, 0x00,
 0x00, 0x00, 0x00, 0x00, 0x00, 0x00, 0x00, 0x00, 0x00, 0x00, 0x00, 0x00,
 0x00, 0x00, 0x00, 0x00, 0x00, 0xe0, 0xff, 0xff, 0xff, 0xff, 0xff, 0xff,
 0x07, 0x00, 0x00, 0x00, 0x00, 0x00, 0x00, 0x00, 0x00, 0x00, 0x00, 0x00,
 0x00, 0x00, 0x00, 0x00, 0x00, 0x00, 0x00, 0x00, 0x80, 0xff, 0xff, 0xff,
 0xff, 0xff, 0xff, 0x01, 0x00, 0x00, 0x00, 0x00, 0x00, 0x00, 0x00, 0x00,
 0x00, 0x00, 0x00, 0x00, 0x00, 0x00, 0x00, 0x00, 0x00, 0x00, 0x00, 0x00,
 0xfc, 0xff, 0xff, 0xff, 0xff, 0x7f, 0x00, 0x00, 0x00, 0x00, 0x00, 0x00,
 0x00, 0x00, 0x00, 0x00, 0x00, 0x00, 0x00, 0x00, 0x00, 0x00, 0x00, 0x00,
 0x00, 0x00, 0x00, 0xe0, 0xff, 0xff, 0xff, 0xff, 0x1f, 0x00, 0x00, 0x00,
 0x00, 0x00, 0x00, 0x00, 0x00, 0x00, 0x00, 0x00, 0x00, 0x00, 0x00, 0x00,
 0x00, 0x00, 0x00, 0x00, 0x00, 0x00, 0x00, 0xff, 0xff, 0xff, 0xff, 0x07,
 0x00, 0x00, 0x00, 0x00, 0x00, 0x00, 0x00, 0x00, 0x00, 0x00, 0x00, 0x00,
 0x00, 0x00, 0x00, 0x00, 0x00, 0x00, 0x00, 0x00, 0x00, 0x00, 0xe0, 0xff,
 0xff, 0xff, 0x00, 0x00, 0x00, 0x00, 0x00, 0x00, 0x00, 0x00, 0x00, 0x00,
 0x00, 0x00, 0x00, 0x00, 0x00, 0x00, 0x00, 0x00, 0x00, 0x00, 0x00, 0x00,
 0x00, 0x00, 0xff, 0xff, 0x0f, 0x00, 0x00, 0x00, 0x00, 0x00, 0x00, 0x00,
 0x00, 0x00, 0x00, 0x00, 0x00, 0x00, 0x00, 0x00, 0x00, 0x00, 0x00, 0x00,
 0x00, 0x00, 0x00, 0x00, 0x00, 0x00, 0x00, 0x00, 0x00, 0x00, 0x00, 0x00,
 0x00, 0x00, 0x00, 0x00, 0x00, 0x00, 0x00, 0x00, 0x00, 0x00, 0x00, 0x00,
 0x00, 0x00, 0x00, 0x00, 0x00, 0x00, 0x00, 0x00, 0x00, 0x00, 0x00, 0x00,
 0x00, 0x00, 0x00, 0x00, 0x00, 0x00, 0x00, 0x00, 0x00, 0x00, 0x00, 0x00,
 0x00, 0x00, 0x00, 0x00, 0x00, 0x00, 0x00, 0x00, 0x00, 0x00, 0x00, 0x00,
 0x00, 0x00, 0x00, 0x00, 0x00, 0x00, 0x00, 0x00, 0x00, 0x00, 0x00, 0x00,
 0x00, 0x00, 0x00, 0x00, 0x00, 0x00, 0x00, 0x00, 0x00, 0x00, 0x00, 0x00,
 0x00, 0x00, 0x00, 0x00, 0x00, 0x00, 0x00, 0x00, 0x00, 0x00, 0x00, 0x00
 };
